<?xml version="1.0" encoding="utf-8"?>
<!-- Generator: Adobe Illustrator 25.2.3, SVG Export Plug-In . SVG Version: 6.00 Build 0)  -->
<svg version="1.1" id="Layer_1" xmlns="http://www.w3.org/2000/svg" xmlns:xlink="http://www.w3.org/1999/xlink" x="0px" y="0px"
	 viewBox="0 0 334.88 110.47" style="enable-background:new 0 0 334.88 110.47;" xml:space="preserve">
<style type="text/css">
	.st0{fill-rule:evenodd;clip-rule:evenodd;fill:#FFFFFF;}
</style>
<g>
	<path class="st0" d="M109.61,41.73l-0.01,5.7l-7.77-0.01l0.01-5.7L109.61,41.73z M109.6,49.9l-0.03,20.32l-7.77-0.01l0.03-20.32
		L109.6,49.9z M119.91,52.98c0.85-1.27,1.79-2.18,2.82-2.71c1.03-0.53,2.21-0.79,3.56-0.79c0.58,0,1,0.07,1.27,0.2l-0.01,6.42
		l-0.16,0c-2.3-0.37-4.08-0.08-5.35,0.89c-1.26,0.97-1.9,2.61-1.9,4.92l-0.01,8.33l-7.77-0.01l0.03-20.32l7.4,0.01l0,3.07H119.91z
		 M135.08,70.08c-1.41-0.55-2.62-1.3-3.61-2.26c-1-0.96-1.77-2.09-2.32-3.41c-0.55-1.32-0.82-2.74-0.82-4.28
		c0-1.54,0.28-2.97,0.83-4.28c0.55-1.31,1.33-2.46,2.33-3.42c1-0.97,2.21-1.72,3.62-2.27c1.41-0.54,3-0.81,4.75-0.81
		c1.75,0,3.34,0.28,4.75,0.82c1.41,0.55,2.61,1.31,3.59,2.28c0.99,0.97,1.74,2.11,2.28,3.43c0.53,1.32,0.8,2.74,0.8,4.28
		c0,1.54-0.27,2.97-0.81,4.28c-0.54,1.31-1.3,2.45-2.29,3.4c-0.99,0.96-2.19,1.7-3.6,2.25c-1.41,0.54-3,0.81-4.75,0.81
		C138.07,70.9,136.49,70.63,135.08,70.08z M142.47,64.31c0.6-1.05,0.91-2.44,0.91-4.16c0-1.73-0.3-3.12-0.9-4.17
		c-0.6-1.05-1.51-1.58-2.71-1.58c-1.21,0-2.1,0.52-2.67,1.57c-0.58,1.05-0.87,2.44-0.87,4.16c0,1.73,0.28,3.12,0.86,4.17
		c0.57,1.05,1.46,1.58,2.67,1.58C140.96,65.88,141.86,65.36,142.47,64.31z M160.74,52.76c0.85-1.11,1.82-1.96,2.9-2.55
		c1.08-0.58,2.37-0.87,3.85-0.87c2.44,0,4.27,0.72,5.51,2.16c1.23,1.44,1.85,3.32,1.84,5.66l-0.02,13.15l-7.77-0.01l0.02-11.32
		c0-1.06-0.23-1.91-0.7-2.55c-0.47-0.64-1.2-0.96-2.22-0.96c-0.99,0-1.76,0.36-2.32,1.09c-0.56,0.73-0.85,1.65-0.85,2.77
		l-0.02,10.96l-7.77-0.01l0.03-20.32l7.4,0.01l0,2.79H160.74z M184.54,70.4c-1.63-0.4-3.05-1.01-4.27-1.82
		c-1.22-0.81-2.18-1.83-2.87-3.05c-0.7-1.22-1.06-2.66-1.08-4.31l8.8,0.01c0.14,1.14,0.63,1.99,1.5,2.53
		c0.86,0.55,2.01,0.82,3.43,0.82c0.41,0,0.84-0.04,1.3-0.12c0.45-0.08,0.86-0.21,1.21-0.4c0.36-0.19,0.65-0.43,0.89-0.74
		c0.23-0.31,0.35-0.67,0.35-1.1c0-0.43-0.12-0.78-0.37-1.08c-0.25-0.29-0.6-0.55-1.07-0.76c-0.47-0.21-1.05-0.41-1.75-0.6
		c-0.7-0.19-1.5-0.39-2.4-0.6c-1.23-0.29-2.49-0.64-3.78-1.04c-1.29-0.4-2.46-0.93-3.51-1.58c-1.05-0.65-1.92-1.48-2.59-2.49
		c-0.67-1.01-1-2.27-1-3.79c0-1.62,0.33-3,0.97-4.14c0.65-1.14,1.52-2.07,2.62-2.79c1.1-0.72,2.39-1.24,3.87-1.57
		c1.48-0.33,3.04-0.49,4.69-0.49c1.51,0,2.97,0.16,4.38,0.48c1.41,0.32,2.66,0.83,3.76,1.54c1.1,0.71,1.97,1.61,2.63,2.71
		c0.66,1.1,1,2.43,1.02,3.97l-8.51-0.01c-0.14-0.77-0.5-1.39-1.09-1.85c-0.59-0.47-1.47-0.7-2.65-0.7c-0.96,0-1.73,0.18-2.32,0.55
		c-0.59,0.37-0.89,0.85-0.89,1.43c0,0.43,0.15,0.77,0.45,1.04c0.3,0.27,0.75,0.5,1.34,0.7c0.59,0.2,1.31,0.39,2.18,0.56
		c0.86,0.17,1.84,0.39,2.94,0.66c1.23,0.29,2.44,0.65,3.62,1.06c1.18,0.41,2.23,0.97,3.16,1.66c0.93,0.69,1.68,1.55,2.24,2.57
		c0.56,1.02,0.84,2.29,0.84,3.81c0,1.57-0.34,2.94-1.01,4.12c-0.67,1.18-1.59,2.17-2.74,2.97c-1.15,0.8-2.5,1.4-4.03,1.81
		c-1.54,0.41-3.17,0.61-4.89,0.61C187.95,71.01,186.17,70.81,184.54,70.4z M210.61,70.18c-1.41-0.55-2.62-1.3-3.61-2.26
		c-1-0.96-1.77-2.09-2.32-3.41c-0.55-1.32-0.82-2.74-0.82-4.28c0-1.54,0.28-2.97,0.83-4.28c0.55-1.31,1.33-2.46,2.33-3.42
		c1-0.97,2.21-1.72,3.62-2.27c1.41-0.54,3-0.81,4.75-0.81c1.75,0,3.34,0.28,4.75,0.82c1.41,0.55,2.61,1.31,3.59,2.28
		c0.99,0.97,1.74,2.11,2.28,3.43c0.53,1.32,0.8,2.74,0.8,4.28c0,1.54-0.27,2.97-0.81,4.28c-0.54,1.31-1.3,2.45-2.29,3.4
		c-0.99,0.96-2.19,1.7-3.6,2.25c-1.41,0.54-3,0.81-4.75,0.81C213.6,71,212.02,70.73,210.61,70.18z M218,64.41
		c0.6-1.05,0.91-2.44,0.91-4.16c0-1.73-0.3-3.12-0.9-4.17c-0.6-1.05-1.51-1.58-2.71-1.58c-1.21,0-2.1,0.52-2.67,1.57
		c-0.58,1.05-0.87,2.44-0.87,4.16c0,1.73,0.28,3.12,0.86,4.17c0.57,1.05,1.46,1.58,2.67,1.58C216.49,65.98,217.39,65.46,218,64.41z
		 M242.7,67.77h-0.12c-0.8,1.06-1.72,1.87-2.78,2.43c-1.06,0.56-2.31,0.83-3.76,0.83c-1.26,0-2.36-0.2-3.29-0.58
		c-0.93-0.39-1.7-0.93-2.32-1.62c-0.62-0.69-1.08-1.52-1.39-2.47c-0.31-0.96-0.47-2.02-0.47-3.19l0.02-13.11l7.77,0.01l-0.02,11.32
		c0,2.15,0.93,3.23,2.79,3.23c1.01,0,1.8-0.32,2.37-0.95c0.56-0.64,0.85-1.51,0.85-2.63l0.02-10.96l7.77,0.01l-0.03,20.32l-7.4-0.01
		L242.7,67.77z M260.44,53.17c0.85-1.27,1.79-2.18,2.82-2.71c1.03-0.53,2.21-0.79,3.56-0.79c0.58,0,1,0.07,1.27,0.2l-0.01,6.42
		l-0.16,0c-2.3-0.38-4.08-0.08-5.35,0.89c-1.26,0.97-1.9,2.61-1.9,4.92l-0.01,8.33l-7.77-0.01l0.03-20.32l7.4,0.01l0,3.07H260.44z
		 M275.65,70.27c-1.41-0.55-2.62-1.3-3.64-2.26c-1.01-0.96-1.79-2.09-2.34-3.41c-0.55-1.32-0.82-2.74-0.82-4.28
		c0-1.54,0.28-2.97,0.83-4.28c0.55-1.31,1.33-2.46,2.35-3.42c1.02-0.97,2.23-1.72,3.64-2.27c1.41-0.54,2.98-0.81,4.71-0.81
		c1.48,0,2.83,0.2,4.05,0.6c1.22,0.4,2.27,0.96,3.16,1.68c0.89,0.72,1.61,1.58,2.15,2.57c0.55,1,0.89,2.09,1.02,3.29l-7.48-0.01
		c-0.22-0.93-0.56-1.64-1.03-2.13c-0.47-0.49-1.12-0.74-1.97-0.74c-1.21,0-2.1,0.49-2.67,1.47c-0.58,0.98-0.87,2.34-0.87,4.06
		c0,1.7,0.3,3.04,0.9,4.01c0.6,0.97,1.51,1.46,2.71,1.46c0.96,0,1.68-0.3,2.16-0.89c0.48-0.6,0.78-1.48,0.89-2.65l7.48,0.01
		c0,1.25-0.26,2.41-0.77,3.49c-0.51,1.08-1.22,2.01-2.14,2.81c-0.92,0.8-2.03,1.42-3.33,1.87c-1.3,0.45-2.74,0.67-4.3,0.67
		C278.63,71.09,277.06,70.82,275.65,70.27z M298.61,70.24c-1.4-0.53-2.6-1.28-3.62-2.24c-1.01-0.96-1.79-2.1-2.34-3.41
		c-0.55-1.32-0.82-2.76-0.82-4.32c0-1.54,0.28-2.97,0.83-4.28c0.55-1.31,1.32-2.46,2.31-3.42c0.99-0.97,2.17-1.72,3.54-2.27
		c1.37-0.54,2.88-0.81,4.52-0.81c1.64,0,3.1,0.25,4.38,0.74c1.27,0.49,2.39,1.17,3.35,2.02c1.29,1.14,2.23,2.58,2.83,4.31
		c0.6,1.73,0.87,3.6,0.81,5.62l-14.97-0.02c0.22,1.2,0.66,2.13,1.33,2.79c0.67,0.66,1.6,1,2.77,1c1.37,0,2.34-0.5,2.92-1.51
		l7.52,0.01c-0.22,0.93-0.68,1.82-1.38,2.67c-0.7,0.85-1.57,1.59-2.61,2.23c-0.96,0.61-1.98,1.05-3.06,1.31
		c-1.08,0.26-2.3,0.4-3.64,0.39C301.57,71.04,300.01,70.77,298.61,70.24z M300.69,55.52c-0.6,0.65-1.02,1.53-1.24,2.65l7.24,0.01
		c-0.16-1.14-0.55-2.03-1.17-2.67c-0.62-0.64-1.39-0.96-2.32-0.96C302.13,54.54,301.29,54.87,300.69,55.52z"/>
	<path class="st0" d="M52.91,19.78c-20.12,0-36.43,16.31-36.43,36.43s16.31,36.43,36.43,36.43s36.43-16.31,36.43-36.43
		S73.02,19.78,52.91,19.78z M35.23,38.52h9.95l-0.01,7.9l-9.95-0.01L35.23,38.52z M32.13,58.46c1.36-0.44,3.02-0.87,3.02-2.06
		l0.01-7.93l10.01,0.01l-0.01,6.7c0,3.31-1.12,5.18-3.57,5.85c2.56,1.03,3.56,2.86,3.55,6.77l-0.01,5.73l-10.01-0.08l0.01-7.5
		c0-1.5-1.65-1.68-3.01-2.14L32.13,58.46z M60.22,74.58c-9.02-0.01-13.34-4.83-13.33-10.9l0-1.84l10.11,0.01l0,0.8
		c0,1.98,1.02,3.34,2.99,3.35c1.81,0,2.7-0.83,2.7-2.25c0.01-4.01-15.45-3.36-15.44-14.6c0.01-6.06,3.85-11.34,13.41-11.33
		c8.59,0.01,12.85,4.84,12.84,10.89l0,1.98l-10.1-0.01l0-1.13c0-1.63-0.84-3.26-2.75-3.26c-1.52,0-2.4,0.84-2.4,2.2
		c-0.01,4.44,15.45,3.32,15.43,14.56C73.68,69.11,69.65,74.59,60.22,74.58z"/>
</g>
</svg>
